<svg height="auto" viewBox="0 0 2000 1000" xmlns="http://www.w3.org/2000/svg"><path d="M0 998.865c7.4-1.753 22.2-5.146 37-8.767 14.8-3.62 22.2-4.971 37-9.338 14.8-4.367 22.2-5.633 37-12.497s22.2-12.431 37-21.822c14.8-9.39 22.2-15.513 37-25.13 14.8-9.618 22.2-13.645 37-22.958 14.8-9.313 22.2-25.522 37-23.608 14.8 1.914 22.2 39.677 37 33.178 14.8-6.5 22.2-64.855 37-65.676 14.8-.82 22.2 60.856 37 61.571 14.8.716 22.2-33.417 37-57.994 14.8-24.577 22.2-60.741 37-64.892 14.8-4.15 22.2 31.883 37 44.139 14.8 12.256 22.2 36.15 37 17.143 14.8-19.007 22.2-91.745 37-112.18 14.8-20.433 22.2 10.671 37 10.01 14.8-.662 22.2-3.131 37-13.317 14.8-10.185 22.2-27.586 37-37.611 14.8-10.025 22.2-14.704 37-12.515 14.8 2.19 22.2 4.425 37 23.46s22.2 58.2 37 71.716c14.8 13.516 22.2 30.626 37-4.134 14.8-34.76 22.2-158.363 37-169.666 14.8-11.303 22.2 119.707 37 113.153 14.8-6.554 22.2-114.459 37-145.925 14.8-31.465 22.2.072 37-11.404 14.8-11.476 22.2-46.425 37-45.977 14.8.448 22.2 50.337 37 48.218 14.8-2.12 22.2-66.336 37-58.813 14.8 7.523 22.2 91.503 37 96.427 14.8 4.923 22.2-49.112 37-71.81s22.2-46.538 37-41.68c14.8 4.857 22.2 42.064 37 65.969 14.8 23.904 22.2 43.477 37 53.553 14.8 10.077 22.2 11.385 37-3.169s22.2-24.486 37-69.6c14.8-45.114 22.2-150.687 37-155.97 14.8-5.282 22.2 95.209 37 129.556 14.8 34.348 22.2 66.514 37 42.182 14.8-24.333 22.2-106.356 37-163.844s22.2-97.358 37-123.596 22.2-38.984 37-7.593c14.8 31.39 22.2 110.247 37 164.545 14.8 54.297 22.2 152.82 37 106.943 14.8-45.879 22.2-316.918 37-336.334 14.8-19.416 22.2 228.266 37 239.253 14.8 10.988 22.2-129.25 37-184.316 14.8-55.067 22.2-126.57 37-91.017 14.8 35.552 22.2 219.002 37 268.779 14.8 49.777 22.2-17.154 37-19.895 14.8-2.74 22.2 17.157 37 6.19 14.8-10.968 22.2-6.18 37-61.028 14.8-54.847 22.2-182.176 37-213.208 14.8-31.033 29.6 46.437 37 58.046l2 814.388H0Z" fill="#444cf71a"/><path d="M0 998.865c7.4-1.753 22.2-5.146 37-8.767 14.8-3.62 22.2-4.971 37-9.338 14.8-4.367 22.2-5.633 37-12.497s22.2-12.431 37-21.822c14.8-9.39 22.2-15.513 37-25.13 14.8-9.618 22.2-13.645 37-22.958 14.8-9.313 22.2-25.522 37-23.608 14.8 1.914 22.2 39.677 37 33.178 14.8-6.5 22.2-64.855 37-65.676 14.8-.82 22.2 60.856 37 61.571 14.8.716 22.2-33.417 37-57.994 14.8-24.577 22.2-60.741 37-64.892 14.8-4.15 22.2 31.883 37 44.139 14.8 12.256 22.2 36.15 37 17.143 14.8-19.007 22.2-91.745 37-112.18 14.8-20.433 22.2 10.671 37 10.01 14.8-.662 22.2-3.131 37-13.317 14.8-10.185 22.2-27.586 37-37.611 14.8-10.025 22.2-14.704 37-12.515 14.8 2.19 22.2 4.425 37 23.46s22.2 58.2 37 71.716c14.8 13.516 22.2 30.626 37-4.134 14.8-34.76 22.2-158.363 37-169.666 14.8-11.303 22.2 119.707 37 113.153 14.8-6.554 22.2-114.459 37-145.925 14.8-31.465 22.2.072 37-11.404 14.8-11.476 22.2-46.425 37-45.977 14.8.448 22.2 50.337 37 48.218 14.8-2.12 22.2-66.336 37-58.813 14.8 7.523 22.2 91.503 37 96.427 14.8 4.923 22.2-49.112 37-71.81s22.2-46.538 37-41.68c14.8 4.857 22.2 42.064 37 65.969 14.8 23.904 22.2 43.477 37 53.553 14.8 10.077 22.2 11.385 37-3.169s22.2-24.486 37-69.6c14.8-45.114 22.2-150.687 37-155.97 14.8-5.282 22.2 95.209 37 129.556 14.8 34.348 22.2 66.514 37 42.182 14.8-24.333 22.2-106.356 37-163.844s22.2-97.358 37-123.596 22.2-38.984 37-7.593c14.8 31.39 22.2 110.247 37 164.545 14.8 54.297 22.2 152.82 37 106.943 14.8-45.879 22.2-316.918 37-336.334 14.8-19.416 22.2 228.266 37 239.253 14.8 10.988 22.2-129.25 37-184.316 14.8-55.067 22.2-126.57 37-91.017 14.8 35.552 22.2 219.002 37 268.779 14.8 49.777 22.2-17.154 37-19.895 14.8-2.74 22.2 17.157 37 6.19 14.8-10.968 22.2-6.18 37-61.028 14.8-54.847 22.2-182.176 37-213.208 14.8-31.033 29.6 46.437 37 58.046" fill="none" stroke="#444cf7" stroke-width="7"/><g fill="#444cf7"><circle cy="998.865" r="14"/><circle cx="37" cy="990.098" r="14"/><circle cx="74" cy="980.76" r="14"/><circle cx="111" cy="968.263" r="14"/><circle cx="148" cy="946.441" r="14"/><circle cx="185" cy="921.31" r="14"/><circle cx="222" cy="898.353" r="14"/><circle cx="259" cy="874.745" r="14"/><circle cx="296" cy="907.923" r="14"/><circle cx="333" cy="842.247" r="14"/><circle cx="370" cy="903.818" r="14"/><circle cx="407" cy="845.824" r="14"/><circle cx="444" cy="780.932" r="14"/><circle cx="481" cy="825.071" r="14"/><circle cx="518" cy="842.214" r="14"/><circle cx="555" cy="730.035" r="14"/><circle cx="592" cy="740.044" r="14"/><circle cx="629" cy="726.727" r="14"/><circle cx="666" cy="689.116" r="14"/><circle cx="703" cy="676.601" r="14"/><circle cx="740" cy="700.061" r="14"/><circle cx="777" cy="771.777" r="14"/><circle cx="814" cy="767.643" r="14"/><circle cx="851" cy="597.977" r="14"/><circle cx="888" cy="711.13" r="14"/><circle cx="925" cy="565.205" r="14"/><circle cx="962" cy="553.801" r="14"/><circle cx="999" cy="507.824" r="14"/><circle cx="1036" cy="556.042" r="14"/><circle cx="1073" cy="497.229" r="14"/><circle cx="1110" cy="593.656" r="14"/><circle cx="1147" cy="521.846" r="14"/><circle cx="1184" cy="480.165" r="14"/><circle cx="1221" cy="546.135" r="14"/><circle cx="1258" cy="599.688" r="14"/><circle cx="1295" cy="596.519" r="14"/><circle cx="1332" cy="526.919" r="14"/><circle cx="1369" cy="370.95" r="14"/><circle cx="1406" cy="500.505" r="14"/><circle cx="1443" cy="542.687" r="14"/><circle cx="1480" cy="378.843" r="14"/><circle cx="1517" cy="255.247" r="14"/><circle cx="1554" cy="247.654" r="14"/><circle cx="1591" cy="412.199" r="14"/><circle cx="1628" cy="519.142" r="14"/><circle cx="1665" cy="182.808" r="14"/><circle cx="1702" cy="422.061" r="14"/><circle cx="1739" cy="237.745" r="14"/><circle cx="1776" cy="146.728" r="14"/><circle cx="1813" cy="415.507" r="14"/><circle cx="1850" cy="395.612" r="14"/><circle cx="1887" cy="401.802" r="14"/><circle cx="1924" cy="340.774" r="14"/><circle cx="1961" cy="127.566" r="14"/><circle cx="1998" cy="185.612" r="14"/></g></svg>