<svg height="auto" viewBox="0 0 2000 1000" xmlns="http://www.w3.org/2000/svg"><path d="M0 1000h27.119V612.844q0-13.56-13.56-13.56Q0 599.285 0 612.845ZM33.898 1000h27.119V253.023q0-13.56-13.56-13.56-13.559 0-13.559 13.56ZM67.797 1000h27.118V723.934q0-13.56-13.56-13.56-13.558 0-13.558 13.56ZM101.695 1000h27.119V213.37q0-13.56-13.56-13.56t-13.56 13.56ZM135.593 1000h27.119V297.987q0-13.56-13.56-13.56-13.559 0-13.559 13.56ZM169.492 1000h27.118V189.595q0-13.56-13.56-13.56-13.558 0-13.558 13.56ZM203.39 1000h27.118V564.986q0-13.56-13.559-13.56-13.56 0-13.56 13.56ZM237.288 1000h27.119V595.02q0-13.559-13.56-13.559-13.559 0-13.559 13.56ZM271.186 1000h27.12V336.575q0-13.56-13.56-13.56t-13.56 13.56ZM305.085 1000h27.118V511.534q0-13.56-13.559-13.56-13.56 0-13.56 13.56ZM338.983 1000h27.119V434.628q0-13.56-13.56-13.56-13.559 0-13.559 13.56ZM372.881 1000H400V206.716q0-13.56-13.56-13.56-13.559 0-13.559 13.56ZM406.78 1000h27.118V622.403q0-13.559-13.559-13.559-13.56 0-13.56 13.56ZM440.678 1000h27.119V213.96q0-13.56-13.56-13.56-13.559 0-13.559 13.56ZM474.576 1000h27.119V601.11q0-13.56-13.56-13.56-13.559 0-13.559 13.56ZM508.475 1000h27.118V419.941q0-13.56-13.56-13.56-13.558 0-13.558 13.56ZM542.373 1000h27.119V195.107q0-13.56-13.56-13.56t-13.56 13.56ZM576.271 1000h27.119V606.898q0-13.559-13.56-13.559-13.559 0-13.559 13.56ZM610.17 1000h27.118V406.826q0-13.56-13.56-13.56-13.559 0-13.559 13.56ZM644.068 1000h27.118V219.265q0-13.56-13.559-13.56-13.56 0-13.56 13.56ZM677.966 1000h27.119V482.392q0-13.56-13.56-13.56-13.559 0-13.559 13.56ZM711.864 1000h27.12V572.137q0-13.56-13.56-13.56t-13.56 13.56ZM745.763 1000h27.118V342.142q0-13.56-13.559-13.56-13.56 0-13.56 13.56ZM779.661 1000h27.119V409.299q0-13.56-13.56-13.56-13.559 0-13.559 13.56ZM813.56 1000h27.118V337.099q0-13.56-13.56-13.56-13.559 0-13.559 13.56ZM847.458 1000h27.118V257.841q0-13.559-13.56-13.559-13.558 0-13.558 13.56ZM881.356 1000h27.119V627.6q0-13.558-13.56-13.558t-13.56 13.559ZM915.254 1000h27.119V214.56q0-13.559-13.56-13.559-13.559 0-13.559 13.56ZM949.153 1000h27.118V321.514q0-13.56-13.56-13.56-13.558 0-13.558 13.56ZM983.05 1000h27.12V457q0-13.56-13.56-13.56T983.05 457ZM1016.95 1000h27.118V276.452q0-13.559-13.56-13.559-13.559 0-13.559 13.56ZM1050.847 1000h27.12V333.441q0-13.559-13.56-13.559t-13.56 13.56ZM1084.746 1000h27.118V564.753q0-13.56-13.559-13.56-13.56 0-13.56 13.56ZM1118.644 1000h27.119V743.685q0-13.56-13.56-13.56-13.559 0-13.559 13.56ZM1152.542 1000h27.119V347.251q0-13.559-13.56-13.559-13.559 0-13.559 13.56ZM1186.44 1000h27.12V434.899q0-13.56-13.56-13.56t-13.56 13.56ZM1220.339 1000h27.119V245.703q0-13.56-13.56-13.56-13.559 0-13.559 13.56ZM1254.237 1000h27.119V206.315q0-13.56-13.56-13.56-13.559 0-13.559 13.56ZM1288.136 1000h27.118V471.367q0-13.56-13.56-13.56-13.558 0-13.558 13.56ZM1322.034 1000h27.119V367.948q0-13.56-13.56-13.56t-13.56 13.56ZM1355.932 1000h27.119V610.454q0-13.56-13.56-13.56-13.559 0-13.559 13.56ZM1389.83 1000h27.12V364.051q0-13.56-13.56-13.56t-13.56 13.56ZM1423.729 1000h27.118V189.863q0-13.56-13.559-13.56-13.56 0-13.56 13.56ZM1457.627 1000h27.119V265.539q0-13.56-13.56-13.56-13.559 0-13.559 13.56ZM1491.525 1000h27.12V459.261q0-13.559-13.56-13.559t-13.56 13.56ZM1525.424 1000h27.118V765.27q0-13.56-13.559-13.56-13.56 0-13.56 13.56ZM1559.322 1000h27.119V791.3q0-13.56-13.56-13.56-13.559 0-13.559 13.56ZM1593.22 1000h27.119V746.594q0-13.559-13.56-13.559-13.559 0-13.559 13.56ZM1627.119 1000h27.118V677.193q0-13.56-13.559-13.56-13.56 0-13.56 13.56ZM1661.017 1000h27.119V220.297q0-13.56-13.56-13.56t-13.56 13.56ZM1694.915 1000h27.119V686.636q0-13.56-13.56-13.56-13.559 0-13.559 13.56ZM1728.814 1000h27.118V321.678q0-13.56-13.56-13.56-13.558 0-13.558 13.56ZM1762.712 1000h27.119V129.331q0-13.559-13.56-13.559t-13.56 13.56ZM1796.61 1000h27.119V338.025q0-13.56-13.56-13.56-13.559 0-13.559 13.56ZM1830.508 1000h27.12V455.655q0-13.559-13.56-13.559t-13.56 13.56ZM1864.407 1000h27.118V174.37q0-13.559-13.559-13.559-13.56 0-13.56 13.56ZM1898.305 1000h27.119V633.396q0-13.56-13.56-13.56-13.559 0-13.559 13.56ZM1932.203 1000h27.119V298.35q0-13.56-13.56-13.56-13.559 0-13.559 13.56ZM1966.102 1000h27.118V619.848q0-13.56-13.559-13.56-13.56 0-13.56 13.56Z" fill="#444cf7"/></svg>