<svg height="auto" viewBox="0 0 2000 1000" xmlns="http://www.w3.org/2000/svg"><path d="M0 1000h123.077V709.66q0-34-34-34H34q-34 0-34 34ZM153.846 1000h123.077V618.296q0-34-34-34h-55.077q-34 0-34 34ZM307.692 1000H430.77V747.354q0-34-34-34h-55.077q-34 0-34 34ZM461.538 1000h123.077V162.842q0-34-34-34h-55.077q-34 0-34 34ZM615.385 1000h123.077V743.278q0-34-34-34h-55.077q-34 0-34 34ZM769.23 1000h123.078V465.36q0-34-34-34H803.23q-34 0-34 34ZM923.077 1000h123.077V548.133q0-34-34-34h-55.077q-34 0-34 34ZM1076.923 1000H1200V436.957q0-34-34-34h-55.077q-34 0-34 34ZM1230.77 1000h123.076V360.925q0-34-34-34h-55.077q-34 0-34 34ZM1384.615 1000h123.077V331.862q0-34-34-34h-55.077q-34 0-34 34ZM1538.462 1000h123.076V792.379q0-34-34-34h-55.076q-34 0-34 34ZM1692.308 1000h123.077V477.794q0-34-34-34h-55.077q-34 0-34 34ZM1846.154 1000h123.077V655.445q0-34-34-34h-55.077q-34 0-34 34Z" fill="#444cf7"/></svg>