<svg height="auto" viewBox="0 0 2000 1000" xmlns="http://www.w3.org/2000/svg"><path d="M0 999.016c18.2-7 54.6-20.994 91-34.998 36.4-14.005 54.6-19.014 91-35.024s54.6-29.587 91-45.025c36.4-15.438 54.6-31.49 91-32.165 36.4-.675 54.6 49.855 91 28.79 36.4-21.065 54.6-117.334 91-134.116 36.4-16.781 54.6 58.67 91 50.207 36.4-8.462 54.6-80.319 91-92.518 36.4-12.2 54.6 40.67 91 31.523 36.4-9.147 54.6-75.047 91-77.258 36.4-2.212 54.6 67.606 91 66.2 36.4-1.406 54.6-22.84 91-73.23s54.6-125.59 91-178.719c36.4-53.13 54.6-103.754 91-86.93 36.4 16.825 54.6 134.002 91 171.054 36.4 37.053 54.6 34.046 91 14.209 36.4-19.838 54.6-42.198 91-113.397 36.4-71.2 54.6-192.905 91-242.6 36.4-49.694 54.6 10.291 91-5.873 36.4-16.165 54.6-65.988 91-74.949 36.4-8.96 54.6-42.144 91 30.147s72.8 265.047 91 331.31L2000 1000H0Z" fill="#444cf71a"/><path d="M0 999.016c18.2-7 54.6-20.994 91-34.998 36.4-14.005 54.6-19.014 91-35.024s54.6-29.587 91-45.025c36.4-15.438 54.6-31.49 91-32.165 36.4-.675 54.6 49.855 91 28.79 36.4-21.065 54.6-117.334 91-134.116 36.4-16.781 54.6 58.67 91 50.207 36.4-8.462 54.6-80.319 91-92.518 36.4-12.2 54.6 40.67 91 31.523 36.4-9.147 54.6-75.047 91-77.258 36.4-2.212 54.6 67.606 91 66.2 36.4-1.406 54.6-22.84 91-73.23s54.6-125.59 91-178.719c36.4-53.13 54.6-103.754 91-86.93 36.4 16.825 54.6 134.002 91 171.054 36.4 37.053 54.6 34.046 91 14.209 36.4-19.838 54.6-42.198 91-113.397 36.4-71.2 54.6-192.905 91-242.6 36.4-49.694 54.6 10.291 91-5.873 36.4-16.165 54.6-65.988 91-74.949 36.4-8.96 54.6-42.144 91 30.147s72.8 265.047 91 331.31" fill="none" stroke="#444cf7" stroke-width="9"/><g fill="#444cf7"><circle cy="999.016" r="14"/><circle cx="91" cy="964.018" r="14"/><circle cx="182" cy="928.994" r="14"/><circle cx="273" cy="883.969" r="14"/><circle cx="364" cy="851.804" r="14"/><circle cx="455" cy="880.594" r="14"/><circle cx="546" cy="746.478" r="14"/><circle cx="637" cy="796.685" r="14"/><circle cx="728" cy="704.167" r="14"/><circle cx="819" cy="735.69" r="14"/><circle cx="910" cy="658.432" r="14"/><circle cx="1001" cy="724.632" r="14"/><circle cx="1092" cy="651.402" r="14"/><circle cx="1183" cy="472.683" r="14"/><circle cx="1274" cy="385.753" r="14"/><circle cx="1365" cy="556.807" r="14"/><circle cx="1456" cy="571.016" r="14"/><circle cx="1547" cy="457.619" r="14"/><circle cx="1638" cy="215.02" r="14"/><circle cx="1729" cy="209.146" r="14"/><circle cx="1820" cy="134.197" r="14"/><circle cx="1911" cy="164.344" r="14"/><circle cx="2002" cy="495.653" r="14"/></g></svg>