<svg height="auto" viewBox="0 0 2000 1000" xmlns="http://www.w3.org/2000/svg"><path d="M0 5.307C7.2 7.385 21.6 10.585 36 15.7c14.4 5.115 21.6 8.7 36 15.182 14.4 6.482 21.6 10.104 36 17.228 14.4 7.123 21.6 16.605 36 18.39 14.4 1.785 21.6-12.735 36-9.466 14.4 3.27 21.6 16.063 36 25.812 14.4 9.75 21.6 13.542 36 22.936 14.4 9.393 21.6 21.81 36 24.032 14.4 2.221 21.6-16.295 36-12.925 14.4 3.37 21.6 26.818 36 29.776 14.4 2.957 21.6-22.916 36-14.988 14.4 7.929 21.6 34.71 36 54.63 14.4 19.918 21.6 54.845 36 44.965 14.4-9.88 21.6-95.496 36-94.366 14.4 1.13 21.6 81.143 36 100.018 14.4 18.875 21.6 2.068 36-5.644 14.4-7.712 21.6-32.171 36-32.916 14.4-.744 21.6 15.658 36 29.195 14.4 13.537 21.6 28.834 36 38.49 14.4 9.655 21.6-8.222 36 9.787 14.4 18.009 21.6 66.011 36 80.258 14.4 14.247 21.6 13.789 36-9.024 14.4-22.813 21.6-121.3 36-105.039 14.4 16.261 21.6 177.345 36 186.346 14.4 9 21.6-106.757 36-141.343 14.4-34.585 21.6-67.5 36-31.585 14.4 35.914 21.6 168.414 36 211.155 14.4 42.742 21.6 42.743 36 2.553 14.4-40.19 21.6-210.127 36-203.504 14.4 6.624 21.6 226.242 36 236.622 14.4 10.38 21.6-153.016 36-184.72 14.4-31.705 21.6-27.316 36 26.197 14.4 53.513 21.6 224.26 36 241.369 14.4 17.11 21.6-105.326 36-155.82 14.4-50.493 21.6-92.895 36-96.648 14.4-3.754 21.6 25.454 36 77.88 14.4 52.426 21.6 146.555 36 184.251 14.4 37.697 21.6 15.7 36 4.23 14.4-11.47 21.6-38.942 36-61.58 14.4-22.64 21.6-44.472 36-51.614 14.4-7.142 21.6 35.686 36 15.904 14.4-19.781 21.6-154.983 36-114.812 14.4 40.171 21.6 313.74 36 315.669 14.4 1.929 21.6-276.886 36-306.023 14.4-29.137 21.6 145.946 36 160.336 14.4 14.39 21.6-107.758 36-88.384 14.4 19.373 21.6 112.325 36 185.252 14.4 72.928 21.6 183.463 36 179.385 14.4-4.077 21.6-184.037 36-199.771 14.4-15.734 21.6 67.667 36 121.103 14.4 53.437 21.6 151.808 36 146.08 14.4-5.727 21.6-171.475 36-174.718 14.4-3.243 21.6 116.69 36 158.503 14.4 41.814 21.6 118.613 36 50.565 14.4-68.049 28.8-312.646 36-390.807L2000 1000H0Z" fill="#444cf71a"/><path d="M0 5.307C7.2 7.385 21.6 10.585 36 15.7c14.4 5.115 21.6 8.7 36 15.182 14.4 6.482 21.6 10.104 36 17.228 14.4 7.123 21.6 16.605 36 18.39 14.4 1.785 21.6-12.735 36-9.466 14.4 3.27 21.6 16.063 36 25.812 14.4 9.75 21.6 13.542 36 22.936 14.4 9.393 21.6 21.81 36 24.032 14.4 2.221 21.6-16.295 36-12.925 14.4 3.37 21.6 26.818 36 29.776 14.4 2.957 21.6-22.916 36-14.988 14.4 7.929 21.6 34.71 36 54.63 14.4 19.918 21.6 54.845 36 44.965 14.4-9.88 21.6-95.496 36-94.366 14.4 1.13 21.6 81.143 36 100.018 14.4 18.875 21.6 2.068 36-5.644 14.4-7.712 21.6-32.171 36-32.916 14.4-.744 21.6 15.658 36 29.195 14.4 13.537 21.6 28.834 36 38.49 14.4 9.655 21.6-8.222 36 9.787 14.4 18.009 21.6 66.011 36 80.258 14.4 14.247 21.6 13.789 36-9.024 14.4-22.813 21.6-121.3 36-105.039 14.4 16.261 21.6 177.345 36 186.346 14.4 9 21.6-106.757 36-141.343 14.4-34.585 21.6-67.5 36-31.585 14.4 35.914 21.6 168.414 36 211.155 14.4 42.742 21.6 42.743 36 2.553 14.4-40.19 21.6-210.127 36-203.504 14.4 6.624 21.6 226.242 36 236.622 14.4 10.38 21.6-153.016 36-184.72 14.4-31.705 21.6-27.316 36 26.197 14.4 53.513 21.6 224.26 36 241.369 14.4 17.11 21.6-105.326 36-155.82 14.4-50.493 21.6-92.895 36-96.648 14.4-3.754 21.6 25.454 36 77.88 14.4 52.426 21.6 146.555 36 184.251 14.4 37.697 21.6 15.7 36 4.23 14.4-11.47 21.6-38.942 36-61.58 14.4-22.64 21.6-44.472 36-51.614 14.4-7.142 21.6 35.686 36 15.904 14.4-19.781 21.6-154.983 36-114.812 14.4 40.171 21.6 313.74 36 315.669 14.4 1.929 21.6-276.886 36-306.023 14.4-29.137 21.6 145.946 36 160.336 14.4 14.39 21.6-107.758 36-88.384 14.4 19.373 21.6 112.325 36 185.252 14.4 72.928 21.6 183.463 36 179.385 14.4-4.077 21.6-184.037 36-199.771 14.4-15.734 21.6 67.667 36 121.103 14.4 53.437 21.6 151.808 36 146.08 14.4-5.727 21.6-171.475 36-174.718 14.4-3.243 21.6 116.69 36 158.503 14.4 41.814 21.6 118.613 36 50.565 14.4-68.049 28.8-312.646 36-390.807" fill="none" stroke="#444cf7" stroke-width="9"/><g fill="#444cf7"><circle cy="5.307" r="14"/><circle cx="36" cy="15.7" r="14"/><circle cx="72" cy="30.882" r="14"/><circle cx="108" cy="48.11" r="14"/><circle cx="144" cy="66.5" r="14"/><circle cx="180" cy="57.034" r="14"/><circle cx="216" cy="82.846" r="14"/><circle cx="252" cy="105.782" r="14"/><circle cx="288" cy="129.814" r="14"/><circle cx="324" cy="116.889" r="14"/><circle cx="360" cy="146.665" r="14"/><circle cx="396" cy="131.677" r="14"/><circle cx="432" cy="186.306" r="14"/><circle cx="468" cy="231.272" r="14"/><circle cx="504" cy="136.906" r="14"/><circle cx="540" cy="236.924" r="14"/><circle cx="576" cy="231.28" r="14"/><circle cx="612" cy="198.364" r="14"/><circle cx="648" cy="227.559" r="14"/><circle cx="684" cy="266.049" r="14"/><circle cx="720" cy="275.836" r="14"/><circle cx="756" cy="356.094" r="14"/><circle cx="792" cy="347.07" r="14"/><circle cx="828" cy="242.031" r="14"/><circle cx="864" cy="428.377" r="14"/><circle cx="900" cy="287.034" r="14"/><circle cx="936" cy="255.449" r="14"/><circle cx="972" cy="466.604" r="14"/><circle cx="1008" cy="469.157" r="14"/><circle cx="1044" cy="265.653" r="14"/><circle cx="1080" cy="502.275" r="14"/><circle cx="1116" cy="317.555" r="14"/><circle cx="1152" cy="343.752" r="14"/><circle cx="1188" cy="585.121" r="14"/><circle cx="1224" cy="429.301" r="14"/><circle cx="1260" cy="332.653" r="14"/><circle cx="1296" cy="410.533" r="14"/><circle cx="1332" cy="594.784" r="14"/><circle cx="1368" cy="599.014" r="14"/><circle cx="1404" cy="537.433" r="14"/><circle cx="1440" cy="485.82" r="14"/><circle cx="1476" cy="501.724" r="14"/><circle cx="1512" cy="386.912" r="14"/><circle cx="1548" cy="702.581" r="14"/><circle cx="1584" cy="396.558" r="14"/><circle cx="1620" cy="556.894" r="14"/><circle cx="1656" cy="468.51" r="14"/><circle cx="1692" cy="653.762" r="14"/><circle cx="1728" cy="833.147" r="14"/><circle cx="1764" cy="633.376" r="14"/><circle cx="1800" cy="754.479" r="14"/><circle cx="1836" cy="900.56" r="14"/><circle cx="1872" cy="725.841" r="14"/><circle cx="1908" cy="884.344" r="14"/><circle cx="1944" cy="934.909" r="14"/><circle cx="1980" cy="544.102" r="14"/></g></svg>