<svg height="auto" viewBox="0 0 2000 1000" xmlns="http://www.w3.org/2000/svg"><path d="M0 621.813c18.2-50.883 54.6-159.977 91-254.415 36.4-94.439 54.6-169.372 91-217.777 36.4-48.406 54.6-50.922 91-24.252 36.4 26.67 54.6 93.595 91 157.599 36.4 64.003 54.6 90.788 91 162.419 36.4 71.631 54.6 242.537 91 195.736 36.4-46.801 54.6-341.92 91-429.742s54.6-101.844 91-9.367c36.4 92.478 54.6 439.999 91 471.755 36.4 31.757 54.6-325.553 91-312.972 36.4 12.58 54.6 333.65 91 375.877 36.4 42.226 54.6-177.267 91-164.746 36.4 12.522 54.6 197.217 91 227.354 36.4 30.136 54.6 54.158 91-76.672 36.4-130.831 54.6-582.128 91-577.482 36.4 4.647 54.6 606.14 91 600.716 36.4-5.424 54.6-592.924 91-627.835 36.4-34.91 54.6 378.586 91 453.28 36.4 74.693 54.6-6.074 91-79.812 36.4-73.739 54.6-328.852 91-288.88 36.4 39.972 54.6 488.26 91 488.739 36.4.48 72.8-389.073 91-486.342L2000 1000H0Z" fill="#444cf71a"/><path d="M0 621.813c18.2-50.883 54.6-159.977 91-254.415 36.4-94.439 54.6-169.372 91-217.777 36.4-48.406 54.6-50.922 91-24.252 36.4 26.67 54.6 93.595 91 157.599 36.4 64.003 54.6 90.788 91 162.419 36.4 71.631 54.6 242.537 91 195.736 36.4-46.801 54.6-341.92 91-429.742s54.6-101.844 91-9.367c36.4 92.478 54.6 439.999 91 471.755 36.4 31.757 54.6-325.553 91-312.972 36.4 12.58 54.6 333.65 91 375.877 36.4 42.226 54.6-177.267 91-164.746 36.4 12.522 54.6 197.217 91 227.354 36.4 30.136 54.6 54.158 91-76.672 36.4-130.831 54.6-582.128 91-577.482 36.4 4.647 54.6 606.14 91 600.716 36.4-5.424 54.6-592.924 91-627.835 36.4-34.91 54.6 378.586 91 453.28 36.4 74.693 54.6-6.074 91-79.812 36.4-73.739 54.6-328.852 91-288.88 36.4 39.972 54.6 488.26 91 488.739 36.4.48 72.8-389.073 91-486.342" fill="none" stroke="#444cf7" stroke-width="9"/><g fill="#444cf7"><circle cy="621.813" r="14"/><circle cx="91" cy="367.398" r="14"/><circle cx="182" cy="149.621" r="14"/><circle cx="273" cy="125.369" r="14"/><circle cx="364" cy="282.968" r="14"/><circle cx="455" cy="445.387" r="14"/><circle cx="546" cy="641.123" r="14"/><circle cx="637" cy="211.381" r="14"/><circle cx="728" cy="202.014" r="14"/><circle cx="819" cy="673.769" r="14"/><circle cx="910" cy="360.797" r="14"/><circle cx="1001" cy="736.674" r="14"/><circle cx="1092" cy="571.928" r="14"/><circle cx="1183" cy="799.282" r="14"/><circle cx="1274" cy="722.61" r="14"/><circle cx="1365" cy="145.128" r="14"/><circle cx="1456" cy="745.844" r="14"/><circle cx="1547" cy="118.009" r="14"/><circle cx="1638" cy="571.288" r="14"/><circle cx="1729" cy="491.477" r="14"/><circle cx="1820" cy="202.597" r="14"/><circle cx="1911" cy="691.336" r="14"/><circle cx="2002" cy="204.994" r="14"/></g></svg>