<svg width="36" height="37" viewBox="0 0 36 37" fill="none" xmlns="http://www.w3.org/2000/svg">
<g id="Bg 1" clip-path="url(#clip0_1_2)">
<g id="Bg">
<path id="Bg_2" d="M35.9985 18.4819C35.9985 8.54121 27.94 0.482666 17.9993 0.482666C8.05854 0.482666 0 8.54121 0 18.4819C0 28.4226 8.05854 36.4812 17.9993 36.4812C27.94 36.4812 35.9985 28.4226 35.9985 18.4819Z" fill="url(#paint0_linear_1_2)"/>
</g>
<g id="Vector">
<path id="Vector_2" d="M9.70017 16.1025C9.93182 16.5778 10.5052 17.5172 10.5052 17.5172L17.1332 7L10.6644 11.3358C10.279 11.5827 9.96273 11.9167 9.7436 12.3086C9.44899 12.8998 9.29245 13.5456 9.28495 14.2009C9.27745 14.8562 9.41916 15.5052 9.70017 16.1025Z" fill="#10151A"/>
<path id="Vector_3" d="M7.07382 19.5656C7.14686 20.5716 7.44299 21.551 7.94237 22.4383C8.44176 23.3256 9.13288 24.1001 9.96945 24.7102L17.1245 29.4991C17.1245 29.4991 12.6479 23.3066 8.87201 17.1447C8.48974 16.4937 8.23275 15.782 8.11336 15.0435C8.0605 14.7091 8.0605 14.369 8.11336 14.0346C8.01491 14.2097 7.82379 14.5683 7.82379 14.5683C7.44093 15.3177 7.18018 16.1192 7.05066 16.9446C6.9761 17.8171 6.98386 18.6944 7.07382 19.5656Z" fill="#10151A"/>
<path id="Vector_4" d="M25.3279 20.3966C25.0962 19.9214 24.5229 18.9819 24.5229 18.9819L17.8948 29.4991L24.3637 25.1661C24.7491 24.9192 25.0653 24.5851 25.2844 24.1932C25.5795 23.6017 25.7363 22.9554 25.7438 22.2995C25.7513 21.6438 25.6093 20.9943 25.3279 20.3966Z" fill="#10151A"/>
<path id="Vector_5" d="M27.9542 16.9335C27.8812 15.9275 27.585 14.9481 27.0857 14.0608C26.5863 13.1735 25.8952 12.399 25.0586 11.7889L17.9035 7C17.9035 7 22.3772 13.1925 26.156 19.3543C26.5373 20.0055 26.7933 20.7173 26.9118 21.4556C26.9646 21.7899 26.9646 22.1301 26.9118 22.4645C27.0102 22.2893 27.2013 21.9308 27.2013 21.9308C27.5842 21.1813 27.845 20.3799 27.9745 19.5545C28.05 18.682 28.0432 17.8048 27.9542 16.9335Z" fill="#10151A"/>
<path id="Vector_6" d="M9.7436 12.3086C9.96273 11.9167 10.279 11.5827 10.6644 11.3358L17.1332 7L10.5051 17.5199C10.5051 17.5199 9.92602 16.5805 9.70016 16.1052C9.41871 15.5076 9.27676 14.8581 9.28426 14.2023C9.29176 13.5465 9.44855 12.9002 9.7436 12.3086ZM7.07382 19.5656C7.14686 20.5716 7.44299 21.551 7.94237 22.4383C8.44176 23.3256 9.13288 24.1001 9.96945 24.7102L17.1245 29.4991C17.1245 29.4991 12.6479 23.3066 8.87201 17.1447C8.48974 16.4937 8.23275 15.7819 8.11336 15.0435C8.0605 14.7091 8.0605 14.369 8.11336 14.0346C8.01491 14.2097 7.82379 14.5683 7.82379 14.5683C7.44093 15.3177 7.18018 16.1192 7.05066 16.9446C6.9761 17.8171 6.98386 18.6944 7.07382 19.5656ZM25.3163 20.3994C25.0846 19.9241 24.5113 18.9847 24.5113 18.9847L17.8948 29.4991L24.3637 25.1661C24.7491 24.9192 25.0653 24.5851 25.2844 24.1932C25.5795 23.6017 25.7363 22.9554 25.7438 22.2995C25.7513 21.6438 25.6093 20.9943 25.3279 20.3966L25.3163 20.3994ZM27.9426 16.9363C27.8696 15.9303 27.5734 14.9508 27.0741 14.0636C26.5747 13.1763 25.8836 12.4017 25.047 11.7917L17.9035 7C17.9035 7 22.3772 13.1925 26.156 19.3543C26.5373 20.0055 26.7933 20.7173 26.9118 21.4556C26.9646 21.7899 26.9646 22.1301 26.9118 22.4645C27.0102 22.2893 27.2013 21.9308 27.2013 21.9308C27.5842 21.1813 27.845 20.3799 27.9745 19.5545C28.05 18.682 28.0432 17.8048 27.9542 16.9335L27.9426 16.9363Z" fill="#10151A"/>
</g>
</g>
<defs>
<linearGradient id="paint0_linear_1_2" x1="17.9993" y1="0.482666" x2="17.9993" y2="36.4812" gradientUnits="userSpaceOnUse">
<stop stop-color="#A09FFE"/>
<stop offset="1" stop-color="#4ACEF7"/>
</linearGradient>
<clipPath id="clip0_1_2">
<rect width="36" height="37" fill="white"/>
</clipPath>
</defs>
</svg>
