<svg width="192" height="50" viewBox="0 0 192 50" fill="none" xmlns="http://www.w3.org/2000/svg">
<g clip-path="url(#clip0_8758_27761)">
<path d="M21.4106 14.2946V21.4315H14.2737V35.7053H7.13687V21.4315H0V14.2946H21.4106Z" fill="#0A9E01"/>
<path d="M42.8206 14.2946H28.5469V21.4315H42.8206V14.2946Z" fill="#0A9E01"/>
<path d="M42.8208 28.5685V35.7053H21.4102V21.4316H28.547V28.5685H42.8208Z" fill="#0A9E01"/>
<path d="M56.3091 19.2905H46.5078V22.1215H49.7908V30.995H53.0262V22.1215H56.3091V19.2905Z" fill="#0A9E01"/>
<path d="M59.997 22.0263C57.6894 22.0263 55.9766 23.5727 55.9766 26.6177C55.9766 29.3059 57.4277 31.1853 60.0684 31.1853C61.4482 31.1853 62.5663 30.8285 63.6368 30.1862L62.4949 28.2592C61.6147 28.7112 60.9962 28.8777 60.2111 28.8777C59.4023 28.8777 58.8313 28.4495 58.7124 27.4742H63.8747C63.8985 27.3314 63.8985 27.1411 63.8985 26.8794C63.9223 23.6202 62.4235 22.0263 59.997 22.0263ZM58.7599 25.5948C58.8551 24.7146 59.2357 24.2626 59.9256 24.2626C60.8058 24.2626 61.1151 24.7146 61.2578 25.5948H58.7599Z" fill="#0A9E01"/>
<path d="M69.6326 28.735C68.8238 28.735 68.3956 28.0213 68.3956 26.6177C68.3956 25.2379 68.7762 24.4529 69.5613 24.4529C70.2036 24.4529 70.4891 24.8097 70.9173 25.5948L72.987 24.0247C72.2257 22.7876 71.2741 22.0263 69.6088 22.0263C66.8017 22.0263 65.4219 23.8819 65.4219 26.5701C65.4219 29.5201 66.9682 31.1615 69.5375 31.1615C71.0838 31.1615 72.0354 30.5668 73.0583 29.0681L71.1552 27.5693C70.5842 28.4257 70.2036 28.735 69.6326 28.735Z" fill="#0A9E01"/>
<path d="M80.0032 22.0263C78.9565 22.0263 78.338 22.3832 77.7908 22.7876V18.8147L74.7695 20.028V31.0188H77.7908V25.9992C77.7908 24.9049 78.1714 24.5956 78.8138 24.5956C79.4323 24.5956 79.8129 24.9049 79.8129 26.023V31.0188H82.8342V25.6424C82.8342 23.3348 81.9064 22.0263 80.0032 22.0263Z" fill="#0A9E01"/>
<path d="M90.0874 28.3543C88.6838 28.3543 88.1128 26.9269 88.1128 25.1427C88.1128 23.2871 88.7076 21.9311 90.0636 21.9311C91.1341 21.9311 91.5385 22.621 91.943 23.7153L94.8929 22.5496C94.084 20.3372 92.9421 19.1002 90.0636 19.1002C86.9234 19.1002 84.7109 21.384 84.7109 25.1427C84.7109 28.616 86.5665 31.1853 90.0398 31.1853C92.8232 31.1853 94.1316 29.6865 94.9167 28.164L92.1809 26.7128C91.5385 27.8071 91.1103 28.3543 90.0874 28.3543Z" fill="black"/>
<path d="M99.7713 22.859V22.2167H96.75V30.9951H99.7713V26.2134C99.7713 25.1428 100.223 24.786 100.961 24.786C101.555 24.786 101.984 25.0953 102.364 25.5235L103.078 22.407C102.721 22.1929 102.293 22.0264 101.651 22.0264C100.866 22.0264 100.271 22.3595 99.7713 22.859Z" fill="black"/>
<path d="M109.527 27.2364C109.527 28.3307 109.147 28.6399 108.528 28.6399C107.91 28.6399 107.529 28.3307 107.529 27.2126V22.2168H104.508V27.5932C104.508 29.9008 105.436 31.1854 107.363 31.1854C108.386 31.1854 109.028 30.8286 109.551 30.4242V31.0189H112.572V22.2405H109.551L109.527 27.2364Z" fill="black"/>
<path d="M119.968 22.0263C118.921 22.0263 118.303 22.3832 117.756 22.7876V22.1929H114.734V30.9712H117.756V25.9516C117.756 24.8573 118.136 24.548 118.779 24.548C119.397 24.548 119.778 24.8573 119.778 25.9754V30.9712H122.799V25.5948C122.799 23.3348 121.895 22.0263 119.968 22.0263Z" fill="black"/>
<path d="M128.797 28.735C127.988 28.735 127.56 28.0213 127.56 26.6177C127.56 25.2379 127.941 24.4529 128.702 24.4529C129.344 24.4529 129.63 24.8097 130.058 25.5948L132.128 24.0247C131.366 22.7876 130.415 22.0263 128.749 22.0263C125.942 22.0263 124.562 23.8819 124.562 26.5701C124.562 29.5201 126.109 31.1615 128.678 31.1615C130.224 31.1615 131.176 30.5668 132.199 29.0681L130.296 27.5693C129.772 28.4257 129.368 28.735 128.797 28.735Z" fill="black"/>
<path d="M139.171 22.0263C138.124 22.0263 137.506 22.3832 136.959 22.7876V18.8147L133.938 20.028V31.0188H136.959V25.9992C136.959 24.9049 137.339 24.5956 137.982 24.5956C138.6 24.5956 138.981 24.9049 138.981 26.023V31.0188H142.002V25.6424C142.026 23.3348 141.098 22.0263 139.171 22.0263Z" fill="black"/>
</g>
<defs>
<clipPath id="clip0_8758_27761">
<rect width="142" height="21.4106" fill="white" transform="translate(0 14.2946)"/>
</clipPath>
</defs>
</svg>
