<svg width="138" height="45" viewBox="0 0 138 45" fill="none" xmlns="http://www.w3.org/2000/svg">
<rect x="0.573744" y="0.573744" width="136.853" height="43.8525" rx="7.42626" fill="#121E28"/>
<rect x="0.573744" y="0.573744" width="136.853" height="43.8525" rx="7.42626" stroke="#2A3744" stroke-width="1.14749"/>
<g clip-path="url(#clip0_8758_27810)">
<path d="M40.6173 16.0649L40.0272 15.0286C39.9809 14.9474 39.9164 14.878 39.8389 14.8257C39.7614 14.7735 39.6728 14.7399 39.5801 14.7276C39.4875 14.7153 39.3932 14.7245 39.3047 14.7546C39.2162 14.7847 39.1359 14.8348 39.0699 14.9011L37.7126 16.2573C37.6133 16.357 37.5516 16.488 37.5378 16.628C37.5241 16.768 37.5591 16.9085 37.637 17.0257C38.132 17.782 38.5286 18.5982 38.8173 19.4547C39.3568 21.0559 39.5074 22.7624 39.2568 24.4333C39.0062 26.1041 38.3615 27.6913 37.3761 29.0637C36.3906 30.4361 35.0926 31.5543 33.5895 32.3257C32.0864 33.0972 30.4212 33.4999 28.7316 33.5004C26.9923 33.5052 25.2788 33.0798 23.7437 32.2623L26.0393 29.9654C27.4619 30.5034 29.0131 30.6024 30.4925 30.2496C31.9719 29.8967 33.3115 29.1083 34.3381 27.9861C35.3647 26.864 36.0311 25.4597 36.2512 23.9548C36.4712 22.4499 36.2349 20.9136 35.5727 19.5445C35.5306 19.4568 35.4682 19.3805 35.3905 19.3219C35.3129 19.2634 35.2224 19.2243 35.1265 19.208C35.0307 19.1917 34.9323 19.1987 34.8397 19.2282C34.747 19.2578 34.6629 19.3092 34.5942 19.378L33.2203 20.7425C33.1471 20.8156 33.0938 20.9063 33.0655 21.0059C33.0372 21.1055 33.0348 21.2106 33.0586 21.3114L33.1767 21.8047C33.3798 22.669 33.3261 23.5737 33.0224 24.4079C32.7186 25.2421 32.1779 25.9695 31.4667 26.5008C30.7554 27.0321 29.9045 27.3442 29.0184 27.3987C28.1323 27.4533 27.2495 27.248 26.4784 26.8081L25.8729 26.461C25.7572 26.3944 25.6227 26.3679 25.4904 26.3856C25.358 26.4033 25.2352 26.4643 25.1411 26.559L19.5335 32.1655C19.4723 32.2267 19.4249 32.3003 19.3944 32.3813C19.3639 32.4623 19.3511 32.5489 19.3568 32.6353C19.3625 32.7217 19.3866 32.8058 19.4274 32.8822C19.4683 32.9585 19.525 33.0252 19.5937 33.0778L20.4199 33.7117C22.8026 35.5478 25.7283 36.5394 28.7363 36.5302C31.1312 36.5272 33.4833 35.896 35.558 34.6997C37.6327 33.5034 39.3573 31.7839 40.5596 29.7128C41.762 27.6417 42.4001 25.2914 42.4102 22.8965C42.4204 20.5017 41.8021 18.1461 40.6173 16.0649Z" fill="white"/>
<path d="M37.0481 11.987C34.6657 10.1502 31.7399 9.15817 28.7317 9.16724C26.3357 9.1691 23.9821 9.7997 21.9061 10.996C19.8302 12.1923 18.1045 13.9125 16.9015 15.9846C15.6986 18.0568 15.0604 20.4083 15.0509 22.8043C15.0414 25.2003 15.6607 27.5568 16.8472 29.6385L17.4373 30.6736C17.4838 30.7547 17.5484 30.8241 17.6259 30.8763C17.7035 30.9284 17.7921 30.9621 17.8848 30.9745C17.9775 30.9869 18.0718 30.9779 18.1604 30.948C18.249 30.9181 18.3295 30.8683 18.3957 30.8022L19.7507 29.4473C19.8493 29.3474 19.9106 29.2167 19.9243 29.077C19.9381 28.9374 19.9035 28.7972 19.8263 28.6801C19.3309 27.924 18.9342 27.1077 18.646 26.251C18.1065 24.6499 17.9559 22.9433 18.2065 21.2725C18.4571 19.6016 19.1018 18.0144 20.0873 16.642C21.0727 15.2696 22.3707 14.1515 23.8738 13.38C25.377 12.6085 27.0421 12.2059 28.7317 12.2053C30.4709 12.2014 32.1841 12.628 33.7185 13.447L31.4216 15.7427C30.271 15.3066 29.0317 15.1565 27.8103 15.3051C26.5888 15.4537 25.4217 15.8966 24.4092 16.5959C23.3968 17.2951 22.5692 18.2297 21.9977 19.3194C21.4262 20.4091 21.1278 21.6212 21.1282 22.8517C21.1282 22.978 21.1624 23.554 21.173 23.6531C21.2661 24.5249 21.5084 25.3741 21.8895 26.1636C21.9316 26.2513 21.9942 26.3276 22.072 26.3862C22.1497 26.4447 22.2403 26.4837 22.3363 26.5C22.4322 26.5163 22.5306 26.5094 22.6234 26.4798C22.7161 26.4503 22.8003 26.3989 22.8691 26.3301L24.243 24.955C24.3162 24.882 24.3695 24.7916 24.398 24.6923C24.4265 24.5929 24.4292 24.488 24.4059 24.3873L24.2878 23.8927C24.0845 23.0285 24.1379 22.1236 24.4416 21.2893C24.7454 20.455 25.2861 19.7276 25.9975 19.1963C26.7089 18.6651 27.5599 18.3531 28.4462 18.2988C29.3324 18.2445 30.2151 18.4502 30.9861 18.8906L31.5916 19.2376C31.7074 19.3037 31.8418 19.3299 31.974 19.3122C32.1062 19.2945 32.2289 19.2339 32.3234 19.1396L37.9298 13.5332C37.9911 13.472 38.0386 13.3983 38.0692 13.3173C38.0998 13.2362 38.1127 13.1495 38.1072 13.063C38.1016 12.9766 38.0776 12.8923 38.0368 12.8158C37.9961 12.7394 37.9395 12.6725 37.8708 12.6196L37.0481 11.987Z" fill="white"/>
<path d="M60.0952 26.6253C59.9929 26.5422 59.8644 26.4983 59.7327 26.5013C59.601 26.5043 59.4747 26.5541 59.3764 26.6418C58.4971 27.324 57.4773 27.9555 55.9865 27.9555C53.2577 27.9555 51.0375 25.6574 51.0375 22.8306C51.0375 20.0038 53.2494 17.6856 55.9665 17.6856C57.1468 17.6856 58.4215 18.1825 59.3587 19.0052C59.4115 19.0665 59.4772 19.1154 59.551 19.1484C59.6248 19.1815 59.7051 19.1979 59.7859 19.1964C59.856 19.1909 59.9241 19.17 59.9852 19.1353C60.0464 19.1007 60.0992 19.053 60.14 18.9958L61.0276 18.0822C61.0841 18.0276 61.1287 17.9618 61.1586 17.8891C61.1884 17.8164 61.2029 17.7383 61.2011 17.6597C61.1978 17.5798 61.1781 17.5015 61.1431 17.4296C61.1082 17.3577 61.0588 17.2938 60.9981 17.2418C59.4484 15.8916 57.8916 15.2896 55.9452 15.2896C51.7906 15.2896 48.4102 18.6913 48.4102 22.8719C48.4117 24.8704 49.2059 26.7867 50.6185 28.2004C52.0311 29.6141 53.9467 30.4097 55.9452 30.4129C56.8841 30.424 57.8158 30.2493 58.6868 29.8988C59.5579 29.5484 60.351 29.0291 61.0205 28.3709C61.0793 28.311 61.1254 28.2399 61.1563 28.1619C61.1871 28.0838 61.2019 28.0004 61.2 27.9165C61.1984 27.8497 61.1833 27.784 61.1558 27.7231C61.1282 27.6623 61.0886 27.6076 61.0394 27.5624L60.0952 26.6253Z" fill="white"/>
<path d="M66.5551 15.495H65.2107C65.0607 15.5 64.9183 15.562 64.8124 15.6684C64.7065 15.7747 64.645 15.9174 64.6406 16.0674V29.641C64.6447 29.7912 64.706 29.9342 64.812 30.0408C64.9179 30.1474 65.0605 30.2095 65.2107 30.2146H66.5551C66.7053 30.2095 66.8479 30.1474 66.9538 30.0408C67.0598 29.9342 67.121 29.7912 67.1252 29.641V16.0674C67.1208 15.9174 67.0593 15.7747 66.9534 15.6684C66.8475 15.562 66.7051 15.5 66.5551 15.495Z" fill="white"/>
<path d="M82.4638 20.0639C82.4638 17.5451 80.39 15.4949 77.8405 15.4949H72.2966C72.1452 15.4956 72.0002 15.5561 71.8934 15.6634C71.7865 15.7707 71.7266 15.916 71.7266 16.0674V29.6409C71.7262 29.7925 71.7861 29.9381 71.893 30.0456C71.9999 30.1532 72.145 30.2139 72.2966 30.2145H73.621C73.7712 30.2095 73.9138 30.1473 74.0197 30.0407C74.1256 29.9341 74.1869 29.7911 74.191 29.6409V24.5927H76.9695L79.6311 29.9218C79.6795 30.0091 79.7505 30.0818 79.8367 30.1323C79.9229 30.1827 80.021 30.2091 80.1209 30.2086H81.7096C81.81 30.212 81.9094 30.1887 81.9979 30.1413C82.0864 30.0938 82.1608 30.0238 82.2136 29.9383C82.2638 29.8481 82.2902 29.7465 82.2902 29.6433C82.2902 29.54 82.2638 29.4384 82.2136 29.3482L79.513 24.3154C81.3378 23.5045 82.4638 21.8922 82.4638 20.0639ZM79.9793 20.1052C79.9793 21.3835 78.9253 22.4658 77.6777 22.4658H74.2324V17.8496H77.6729C78.9229 17.8496 79.9745 18.8824 79.9745 20.1052H79.9793Z" fill="white"/>
<path d="M96.9358 26.6253C96.8335 26.5422 96.705 26.4983 96.5733 26.5013C96.4416 26.5043 96.3153 26.5541 96.217 26.6418C95.3376 27.324 94.3178 27.9555 92.8271 27.9555C90.0982 27.9555 87.8781 25.6574 87.8781 22.8306C87.8781 20.0038 90.0888 17.6856 92.8059 17.6856C93.9862 17.6856 95.2609 18.1825 96.1992 19.0052C96.2523 19.0671 96.3186 19.1163 96.3931 19.1494C96.4676 19.1825 96.5486 19.1986 96.6301 19.1964C96.7002 19.1909 96.7682 19.17 96.8293 19.1353C96.8905 19.1007 96.9434 19.053 96.9842 18.9958L97.8717 18.0822C97.9281 18.0275 97.9725 17.9617 98.0021 17.889C98.0318 17.8163 98.0461 17.7382 98.0441 17.6597C98.0412 17.5798 98.0218 17.5015 97.9871 17.4295C97.9523 17.3576 97.903 17.2937 97.8422 17.2418C96.296 15.8916 94.7392 15.2896 92.7929 15.2896C88.6382 15.2896 85.2578 18.6913 85.2578 22.8719C85.2594 24.8704 86.0536 26.7867 87.4661 28.2004C88.8787 29.6141 90.7944 30.4097 92.7929 30.4129C93.7317 30.4239 94.6634 30.2491 95.5344 29.8987C96.4054 29.5482 97.1986 29.029 97.8682 28.3709C97.927 28.3109 97.9732 28.2396 98.004 28.1613C98.0349 28.0831 98.0497 27.9994 98.0476 27.9153C98.0461 27.8486 98.0311 27.7828 98.0035 27.7219C97.9759 27.6611 97.9363 27.6064 97.8871 27.5613L96.9358 26.6253Z" fill="white"/>
<path d="M109.3 27.9354H103.965V16.0674C103.961 15.9174 103.899 15.7747 103.793 15.6684C103.687 15.562 103.545 15.5 103.395 15.495H102.051C101.899 15.4956 101.754 15.5562 101.647 15.6635C101.54 15.7708 101.48 15.916 101.48 16.0674V29.641C101.48 29.7926 101.54 29.9381 101.647 30.0457C101.754 30.1532 101.899 30.214 102.051 30.2146H109.3C109.375 30.2144 109.45 30.1995 109.519 30.1706C109.588 30.1417 109.651 30.0994 109.704 30.0461C109.757 29.9928 109.8 29.9296 109.828 29.8601C109.857 29.7906 109.871 29.7161 109.871 29.641V28.5138C109.872 28.4382 109.858 28.3632 109.83 28.2932C109.801 28.2231 109.759 28.1594 109.706 28.1056C109.653 28.0518 109.59 28.0091 109.52 27.9799C109.45 27.9507 109.376 27.9356 109.3 27.9354Z" fill="white"/>
<path d="M121.374 17.7919C121.526 17.7913 121.671 17.7307 121.778 17.6234C121.884 17.5161 121.944 17.3709 121.944 17.2195V16.071C121.944 15.9196 121.884 15.7744 121.778 15.6671C121.671 15.5598 121.526 15.4992 121.374 15.4986H113.23C113.079 15.4992 112.934 15.5598 112.827 15.6671C112.72 15.7744 112.66 15.9196 112.66 16.071V29.6446C112.66 29.7962 112.72 29.9417 112.827 30.0493C112.933 30.1568 113.079 30.2176 113.23 30.2182H121.374C121.526 30.2176 121.671 30.1568 121.778 30.0493C121.885 29.9417 121.945 29.7962 121.944 29.6446V28.5174C121.944 28.366 121.884 28.2207 121.778 28.1134C121.671 28.0061 121.526 27.9455 121.374 27.9449H115.119V23.8953H120.372C120.524 23.895 120.669 23.8345 120.776 23.7272C120.883 23.6199 120.944 23.4745 120.944 23.3228V22.1756C120.939 22.0252 120.878 21.882 120.772 21.7754C120.666 21.6688 120.523 21.6067 120.372 21.602H115.122V17.7919H121.374Z" fill="white"/>
</g>
<defs>
<clipPath id="clip0_8758_27810">
<rect width="106.839" height="39.7721" fill="white" transform="translate(15 2.98108)"/>
</clipPath>
</defs>
</svg>
