<svg width="70" height="58" viewBox="0 0 70 58" fill="none" xmlns="http://www.w3.org/2000/svg">
<rect x="0.664336" y="0.664336" width="96.6713" height="56.6713" rx="11.3357" fill="#121E28"/>
<rect x="0.664336" y="0.664336" width="96.6713" height="56.6713" rx="11.3357" stroke="#2A3744" stroke-width="1.32867"/>
<path fill-rule="evenodd" clip-rule="evenodd" d="M21.551 42.5606L23.3128 47.2515H24.2144L26.0111 42.4433H25.0542L23.7977 46.0646L22.5214 42.3938L21.551 42.5606ZM29.917 42.4428V47.2295H32.768V46.4534H30.825V45.1357H32.3927L32.268 44.3451H30.825V43.22H32.6981V42.4428H29.917ZM39.7813 42.4428V45.58L37.6308 42.4433H36.7631V47.23H37.6163V43.9353L39.8716 47.2306H40.635V42.4428H39.7813ZM44.5963 42.4428V43.2404H46.0177V47.2311H46.9403V43.2404H48.4456L48.3139 42.4433L44.5963 42.4428ZM56.1659 45.3568V42.4439H55.2428V45.3498C55.2428 46.0866 54.903 46.5169 54.2235 46.5169C53.5504 46.5169 53.2181 46.0581 53.2181 45.3299V42.4439H52.302V45.3777C52.302 46.6266 53.0579 47.3139 54.217 47.3139C55.3751 47.3139 56.1654 46.6266 56.1654 45.3562L56.1659 45.3568ZM62.6174 45.2255C63.2066 45.0104 63.5744 44.5737 63.5744 43.8793C63.5744 42.9489 62.9292 42.4433 61.861 42.4433H60.3755V47.23H61.2927V45.3982H61.7088L62.9572 47.279L63.8937 47.1058L62.6174 45.2255ZM62.6722 43.9277C62.6722 44.4269 62.3185 44.6968 61.7497 44.6968H61.2857V43.178H61.7911C62.3674 43.178 62.6728 43.4485 62.6728 43.9272L62.6722 43.9277ZM70.5941 47.2306V46.4534H68.6522V45.1357H70.2199L70.0952 44.344H68.6528V43.22H70.5259V42.4439H67.7437V47.2306H70.5941ZM77.5031 45.8634C77.5031 45.1212 77.1429 44.7813 76.1575 44.379C75.4919 44.1015 75.3392 43.9557 75.3392 43.6508C75.3392 43.3587 75.5408 43.1371 75.9983 43.1371C76.3725 43.1371 76.7817 43.2823 77.1284 43.5109L77.2671 42.6784C76.9204 42.4982 76.5467 42.3879 76.0048 42.3879C75.1102 42.3879 74.458 42.88 74.458 43.7271C74.458 44.4693 74.8322 44.7738 75.7618 45.1556C76.4553 45.4536 76.622 45.5993 76.622 45.9532C76.622 46.3351 76.3306 46.5362 75.9069 46.5362C75.4285 46.5362 74.9295 46.3491 74.5274 46.113L74.3876 46.952C74.858 47.1749 75.3725 47.2889 75.893 47.2854C76.8166 47.2854 77.5026 46.7998 77.5026 45.8629L77.5031 45.8634ZM18.5914 38.2165H28.1686V37.7432C26.1982 37.7039 25.5278 37.4286 25.5278 36.2459V21.4232H32.7013V36.2459C32.7013 37.4291 31.9917 37.7034 30.2578 37.7437V38.217H39.7173V37.7437C37.3131 37.7045 36.84 37.4291 36.84 36.2464V19.9635L31.4798 20.2002H25.5283V16.5343C25.5283 13.4988 26.0015 12.2763 26.8283 11.4486C27.538 10.7784 28.524 10.4235 29.825 10.4235C31.4798 10.4235 32.7411 11.2517 33.2148 12.1585C32.5438 12.6318 32.0712 13.459 32.0712 14.248C32.0712 15.9422 33.2927 16.6134 34.554 16.6134C35.9341 16.6134 36.8803 15.5883 36.8803 14.1297C36.8803 12.1182 34.8696 9.71405 29.7853 9.71405C27.1842 9.71405 25.0558 10.3842 23.5187 11.9219C22.1386 13.3417 21.3897 15.3909 21.3897 18.7416V20.0819L18 20.9494V21.4625H21.3897V36.2453C21.3897 37.4286 20.8376 37.7029 18.5908 37.7432V38.2165H18.5914ZM48.1473 30.8837L49.9214 29.1099L54.2955 35.4563C55.2417 36.8364 55.1235 37.5464 53.0751 37.7437V38.217H62.4158V37.7437C60.6024 37.5469 60.2083 37.2317 58.5137 34.8271L52.6015 26.4686L54.7305 24.3399C57.2519 21.8949 58.6713 20.9881 60.9572 20.5159V20.0426H52.6015V20.5159C55.3595 21.0279 55.6358 22.1708 53.9412 23.9451L48.1473 29.8989V9.9507L40.8555 10.1863V10.6596C43.6146 10.7386 44.0092 11.3297 44.0092 12.67V36.2453C44.0092 37.4286 43.4963 37.7029 41.2103 37.7432V38.2165H50.237V37.7432C48.6994 37.7039 48.1473 37.4286 48.1473 36.2459V30.8837ZM70.1049 36.6396C68.0942 36.6396 67.1888 35.2993 67.1888 33.4072C67.1888 30.7261 68.3318 29.5832 73.5737 28.5576V34.4323C72.7844 35.5365 71.5232 36.6401 70.1044 36.6401L70.1049 36.6396ZM67.8184 38.4537C70.2619 38.4537 72.1151 37.0741 73.6124 35.3396H73.7699C74.0064 37.4684 74.8344 38.3752 77.0413 38.3752C78.4209 38.3752 79.4456 37.9019 80.8251 37.0343L80.6676 36.6406C78.3816 37.5872 77.672 36.759 77.672 34.8281V25.642C77.672 21.5813 75.3064 19.8468 70.8538 19.8468C66.4001 19.8468 63.5233 21.5421 63.5233 23.8682C63.5233 25.1697 64.4292 26.1943 65.8093 26.1943C67.3469 26.1943 68.1748 25.2477 68.1748 23.8682C68.1748 23.0792 67.7797 22.3698 67.1103 21.7384C67.8189 21.0295 69.0404 20.596 70.3807 20.596C72.7065 20.596 73.5742 22.0148 73.5742 24.9718V27.81C72.6667 28.2429 68.0555 28.4796 65.1389 30.0958C63.4841 31.0025 62.7744 32.5402 62.7744 34.0779C62.7744 36.2857 64.3109 38.4537 67.8189 38.4537" fill="white"/>
</svg>
